<svg xmlns="http://www.w3.org/2000/svg" version="1.1" xmlns:xlink="http://www.w3.org/1999/xlink" xmlns:svgjs="http://svgjs.dev/svgjs" width="100%" height="100%" viewBox="0 0 1000 600"><rect width="1000" height="600" x="0" y="0" fill="#295f2d"/><g><circle r="166.66666666666666" cx="365.73046366373694" cy="387.95266738696535" fill="#ffe67c" transform="matrix(0.6279394677149791,0,0,0.6279394677149792,0,56.389205879683345)"/><path d="M401.98284043583755 318.2728281066158L401.98284043583755 318.2728281066158Q407.3029906745524 319.9206622513505 409.9395253061279 323.87546419871376Q412.57605993770346 327.87734712164087 412.57605993770346 331.8321490690042L412.57605993770346 331.8321490690042Q412.57605993770346 337.48186613666604 408.6212579903402 341.2954251573378Q404.61937506741305 345.06190320244565 399.01673897531504 345.06190320244565L399.01673897531504 345.06190320244565Q397.36890483058033 345.06190320244565 396.3331233681757 344.73233637349875L396.3331233681757 344.73233637349875Q389.4122199602899 342.75493539981704 383.4329360636811 341.6249919862847Q377.5007331426362 340.4479675971885 371.8510160749743 340.4479675971885L371.8510160749743 340.4479675971885Q366.9075136407703 340.4479675971885 361.9169302310023 341.43666808402935Q356.97342779679815 342.42536857087015 351.3237107291364 344.07320271560485L351.3237107291364 344.07320271560485L350.9941439001894 344.4027695445518Q355.98472730995735 354.0072885595769 364.55346486257787 361.30483977197343Q373.16928339076213 368.60239098437 382.4442355768403 376.0411851234581Q391.71918776291847 383.4799792625462 400.1466823888474 391.76623096178355Q408.6212579903402 400.0524826610209 412.57605993770346 410.9752689918338L412.57605993770346 410.9752689918338Q414.2238940824382 415.25963776814405 414.2238940824382 419.92065434896506L414.2238940824382 419.92065434896506Q414.2238940824382 426.8415577568508 411.5873594508626 434.4686757981943Q408.9508248192871 442.0957938395378 403.8189984828276 448.35756358952966Q398.68717214636814 454.6664143150854 390.73048727607767 458.80954016470406Q382.7738024057873 462.95266601432274 371.8510160749743 462.95266601432274L371.8510160749743 462.95266601432274Q359.60996242837376 462.95266601432274 349.5346336577101 459.139106993651Q339.4122239114826 455.3255479729793 331.78510587013915 449.0166972474235L331.78510587013915 449.0166972474235L325.5233361201473 445.0618953000602L322.55723465962484 442.0957938395378Q317.5666512498569 437.7643440876637 317.2370844209099 431.50257433767183L317.2370844209099 431.50257433767183L317.2370844209099 429.4780923884263Q318.2257849077508 423.21632263843446 321.70977709947556 420.39146410460353Q325.19376929120034 417.5666055707726 330.13727172540445 416.90747191287875L330.13727172540445 416.90747191287875Q336.7756892799071 416.90747191287875 342.3783253720051 423.87545629632837L342.3783253720051 423.87545629632837L350.33501024229554 428.15982507263857Q354.99602682311655 430.8434406797779 360.78698681746994 433.4799753113535Q366.5779468118233 436.116509942929 372.18058290392133 436.116509942929L372.18058290392133 436.116509942929Q376.84159948474235 436.116509942929 381.12596826105255 433.4799753113535L381.12596826105255 433.4799753113535L383.1033692347342 431.8321411666188Q384.092069721575 428.8189587305325 384.93952728172434 425.85285727000996Q385.7399038663097 422.8867558094875 385.7399038663097 420.250221177912L385.7399038663097 420.250221177912Q385.7399038663097 415.25963776814405 383.62125996593653 411.77564557641927Q381.4555350899995 408.2916533846944 377.97154289827466 405.51387582642735Q374.48755070654994 402.6890172925964 370.53274875918663 400.19372558771244Q366.5779468118233 397.69843388282845 362.57606388889616 394.73233242230606L362.57606388889616 394.73233242230606Q358.95082877047986 392.0957977907305 352.50073511823257 386.3048377963771Q346.0506414659853 380.5138778020237 339.4122239114826 373.21632658962716Q332.77380635697995 365.91877537723065 328.0186278250313 357.82084758024865Q323.2163683175187 349.72291978326666 323.2163683175187 342.75493539981704L323.2163683175187 342.75493539981704Q323.2163683175187 334.46868370057973 328.15987075172285 328.67772370622635Q333.1504541614908 322.8867637118729 340.40092439832347 319.449852495712Q347.69847561072 315.9658603039872 355.65516048101045 314.4592690859441Q363.564764375737 312.9526778679009 369.2144814433988 312.9526778679009L369.2144814433988 312.9526778679009Q378.48943362947705 312.9526778679009 385.92822776856514 314.3180261592525Q393.36702190765317 315.63629347504025 401.98284043583755 318.2728281066158Z " fill="#295f2d" transform="matrix(0.6279394677149791,0,0,0.6279394677149792,0,56.389205879683345)"/><path d="M673.4721409988928 316.5775636109495L673.4721409988928 316.5775636109495Q677.0970336085703 317.7003179590797 678.8934405655788 320.39492839459234Q680.6898475225871 323.12161752576577 680.6898475225871 325.81622796127834L680.6898475225871 325.81622796127834Q680.6898475225871 329.665671440582 677.9952370870745 332.264045789112Q675.2685479559011 334.8303414419811 671.4511831722583 334.8303414419811L671.4511831722583 334.8303414419811Q670.3284288241281 334.8303414419811 669.622697519589 334.60579057235503L669.622697519589 334.60579057235503Q664.9071292574421 333.25848535459875 660.8331349085123 332.488596658738Q656.7912192552434 331.68662926721646 652.9417757759398 331.68662926721646L652.9417757759398 331.68662926721646Q649.573512731549 331.68662926721646 646.1731709914975 332.3602818760946Q642.8049079471067 333.0339344849727 638.9554644678032 334.1566888331029L638.9554644678032 334.1566888331029L638.730913598177 334.38123970272903Q642.1312553382287 340.92529361754526 647.9695779485058 345.89749144497915Q653.839979254444 350.8696892724131 660.1594822996342 355.9381231868296Q666.4789853448243 361.00655710124613 672.2210718681191 366.6524075375582Q677.9952370870745 372.29825797387025 680.6898475225871 379.7405153671907L680.6898475225871 379.7405153671907Q681.8126018707175 382.6596766723293 681.8126018707175 385.8354675427548L681.8126018707175 385.8354675427548Q681.8126018707175 390.55103580490186 680.016194913709 395.7477845019618Q678.2197879567005 400.9445331990218 674.7232101296664 405.21099972191666Q671.2266323026323 409.50954494047244 665.8053327359463 412.3324701586285Q660.3840331692603 415.15539537678455 652.9417757759398 415.15539537678455L652.9417757759398 415.15539537678455Q644.6013149041152 415.15539537678455 637.7364740326902 412.55702102825455Q630.8395544656045 409.95864667972455 625.6428057685445 405.6601014611688L625.6428057685445 405.6601014611688L621.3763392456495 402.9654910256562L619.3553814190152 400.9445331990218Q615.9550396789635 397.9932931982223 615.7304888093375 393.7268266753274L615.7304888093375 393.7268266753274L615.7304888093375 392.3474427619102Q616.4041414182158 388.08097623901534 618.7779648971197 386.1562544993635Q621.1517883760235 384.2315327597116 624.5200514204142 383.78243102045957L624.5200514204142 383.78243102045957Q629.0431475085961 383.78243102045957 632.8605122922389 388.5300779782674L632.8605122922389 388.5300779782674L638.2818118589249 391.44923928340603Q641.4576027293505 393.2777249360753 645.4032822956368 395.0741318930837Q649.3489618619229 396.8705388500921 653.1663266455658 396.8705388500921L653.1663266455658 396.8705388500921Q656.3421175159914 396.8705388500921 659.26127882113 395.0741318930837L659.26127882113 395.0741318930837L660.6085840388863 393.9513775449534Q661.2822366477644 391.89834102265814 661.85965316966 389.8773831960237Q662.4049909958947 387.8564253693893 662.4049909958947 386.0600184123809L662.4049909958947 386.0600184123809Q662.4049909958947 382.6596766723293 660.9614496911557 380.2858531934254Q659.4858296907561 377.91202971452145 657.1120062118521 376.0193866705305Q654.7381827329482 374.0946649308786 652.0435722974356 372.3944940608528Q649.3489618619229 370.69432319082705 646.6222727307496 368.6733653641926L646.6222727307496 368.6733653641926Q644.152213164863 366.87695840718425 639.7574318593247 362.93127884089796Q635.3626505537862 358.9855992746117 630.8395544656045 354.0134014471778Q626.3164583774227 349.04120361974384 623.0765101156754 343.52366796607527Q619.8044831582673 338.00613231240663 619.8044831582673 333.25848535459875L619.8044831582673 333.25848535459875Q619.8044831582673 327.6126349182867 623.172746202658 323.66695535200046Q626.5730879427095 319.72127578571417 631.5132070744827 317.3795310024711Q636.4854049019166 315.00570752356714 641.9067044686026 313.97918926241954Q647.2959253396277 312.9526710012719 651.1453688189314 312.9526710012719L651.1453688189314 312.9526710012719Q657.4648718641216 312.9526710012719 662.5333057785382 313.8829531754369Q667.6017396929547 314.7811566539411 673.4721409988928 316.5775636109495ZM789.4045471172552 409.73409581009855L785.8117332032384 411.5305027671069Q784.8814510290733 411.5305027671069 784.2077984201952 411.75505363673295L784.2077984201952 411.75505363673295Q778.369475809918 411.75505363673295 773.4935140694666 408.61134146196827Q768.6496310246762 405.4355505915428 766.4041223284157 400.9445331990218L766.4041223284157 400.9445331990218L766.4041223284157 400.71998232939575Q766.1795714587897 400.71998232939575 765.5059188499115 401.842736677526L765.5059188499115 401.842736677526Q760.3091701528516 408.1622397227162 755.1124214557916 410.8568501582288Q749.9477514543926 413.55146059374135 743.1791466699501 413.55146059374135L743.1791466699501 413.55146059374135Q734.3575053632126 413.55146059374135 726.241595361014 411.0814010278548Q718.1256853588154 408.61134146196827 712.0307331832513 403.4145927649083Q705.9678597033479 398.2178440678483 702.2146523110268 390.4547997179193Q698.4935236143666 382.6596766723293 698.4935236143666 372.0737071042442L698.4935236143666 372.0737071042442Q698.4935236143666 361.68020971012425 700.4182453540185 350.420587533161Q702.3429670936704 339.12888666053686 703.2411705721745 329.665671440582L703.2411705721745 329.665671440582Q704.3639249203047 325.36712622202623 707.1868501384607 323.34616839539177Q710.0097753566168 321.32521056875737 712.7043857921294 321.32521056875737L712.7043857921294 321.32521056875737Q716.5538292714331 321.32521056875737 719.1522036199631 323.89150622162646Q721.7505779684931 326.48988057015646 721.7505779684931 331.68662926721646L721.7505779684931 331.68662926721646Q721.301476229241 334.8303414419811 720.4995088377193 339.0326505735543Q719.6975414461978 343.2028810094666 719.0238888373196 348.04676405425704Q718.3502362284414 352.8906470990475 717.8048984022067 358.0873957961075Q717.2274818803112 363.2520657975066 717.2274818803112 368.22426362494053L717.2274818803112 368.22426362494053Q717.2274818803112 373.1964614523744 718.7993379676935 378.1365805841475Q720.4032727507367 383.1087784115814 723.194119273232 387.0544579778677Q726.017044491388 391.000137544154 729.6419371010655 393.50227580570134Q733.2347510150823 395.97233537158786 737.3087453640121 395.97233537158786L737.3087453640121 395.97233537158786Q740.0033557995247 395.97233537158786 742.9545958003241 395.52323363233575Q745.8737571054628 395.0741318930837 748.6966823236188 392.4757575445537Q751.5196075417748 389.8773831960237 753.9896671076614 384.68063449896374Q756.4918053692088 379.51596449756465 757.839110586965 370.0206705819489L757.839110586965 370.0206705819489Q757.614559717339 366.42785666793213 757.4862449346955 363.47661666713265Q757.3900088477129 360.557455361994 757.3900088477129 358.0873957961075L757.3900088477129 358.0873957961075L757.1654579780869 326.7144314397825Q758.063661456591 322.89706665613966 760.437484935495 320.87610882950526Q762.7792297187381 318.82307230721 766.1795714587897 318.3739705679579L766.1795714587897 318.3739705679579Q772.948176243232 318.3739705679579 775.6427866787446 326.48988057015646L775.6427866787446 326.48988057015646Q775.6427866787446 328.9920188317039 775.546550591762 331.59039318023383Q775.4182358091185 334.1566888331029 775.4182358091185 336.65882709465035L775.4182358091185 336.65882709465035Q775.4182358091185 343.42743187909264 775.8673375483706 349.84317101126544Q776.3164392876226 356.25891014343824 776.3164392876226 362.8029640582545L776.3164392876226 362.8029640582545Q776.3164392876226 365.08055145017585 776.3164392876226 367.1977453637929Q776.3164392876226 369.34701797307076 776.0918884179966 371.400054495366L776.0918884179966 371.400054495366Q776.9900918965009 376.78927536639117 778.6902627665266 381.7614731938251Q780.3904336365524 386.73367102125906 782.860493202439 390.3264849352758L782.860493202439 390.3264849352758Q783.5341458113171 390.10193406564974 785.1060018986994 390.10193406564974L785.1060018986994 390.10193406564974Q788.7308945083771 390.10193406564974 791.329268856907 392.8286231968232Q793.9276432054371 395.52323363233575 793.9276432054371 400.4954314597697L793.9276432054371 400.4954314597697Q793.2539905965589 403.86369450416043 792.4520232050372 405.5638653741862Q791.6500558135157 407.264036244212 789.4045471172552 409.73409581009855L789.4045471172552 409.73409581009855ZM840.8266962616202 453.48943669151697L840.8266962616202 453.48943669151697Q840.8266962616202 458.0125327796988 837.9075349564816 460.4825923455853Q834.9562949556821 462.9526519114719 831.8125827809174 462.9526519114719L831.8125827809174 462.9526519114719Q828.6688706061527 462.9526519114719 825.7176306053532 460.803379302194Q822.7984693002146 458.686185388577 822.3493675609625 454.16308930039514L822.3493675609625 454.16308930039514Q821.4511640824583 443.8016706019361 820.2963310386672 433.5364879904596Q819.173576690537 423.27130537898313 816.9280679942765 412.8778079848632L816.9280679942765 412.8778079848632L816.0298645157723 408.8358923315943Q816.0298645157723 407.7131379834641 815.6769988635028 406.558304939673Q815.3562119068943 405.4355505915428 815.3562119068943 404.3127962434125L815.3562119068943 404.3127962434125L809.26125973133 370.91887406045305Q809.036708861704 369.1224671034447 808.4592923398084 365.5296531894279Q807.9139545135737 361.9047605797503 807.2403019046956 357.41374318722933Q806.5345706001566 352.8906470990475 805.9892327739219 347.82221318463104Q805.4118162520264 342.75377927021447 805.4118162520264 338.00613231240663L805.4118162520264 338.00613231240663Q805.4118162520264 331.91118013684246 807.6894036439477 329.08825491868646Q809.9349123402081 326.2653297005304 813.2069392976164 325.27089013504366Q816.4789662550245 324.244371873896 819.9755440820586 324.37268665653943Q823.4721219090927 324.468922743522 825.9421814749793 324.468922743522L825.9421814749793 324.468922743522Q835.1808458253081 324.6934736131481 844.3232740886544 327.7409497009301Q853.4657023520006 330.78842578871223 860.683408875695 336.65882709465035Q867.9011153993894 342.52922840058847 872.2958967049278 351.3187910116652Q876.6906780104662 360.1083536227419 876.6906780104662 371.84915623461814L876.6906780104662 371.84915623461814Q876.6906780104662 388.75462884789346 866.2009445293636 400.59166754675226Q855.7112110482611 412.4287062456111 835.6299475645602 414.70629363753244L835.6299475645602 414.70629363753244Q837.4584332172295 423.72040711823524 838.6774236523423 433.40817320781616Q839.928492783116 443.12801799305794 840.8266962616202 453.48943669151697ZM832.2616845201695 395.97233537158786L832.2616845201695 395.97233537158786L838.5811875653598 395.52323363233575Q847.1461993068104 395.0741318930837 852.7920497431226 388.62631406525Q858.4379001794346 382.2105749330772 858.4379001794346 371.400054495366L858.4379001794346 371.400054495366Q858.4379001794346 364.8560005805498 855.9357619178871 359.65925188348984Q853.4657023520006 354.46250318642984 849.2954719160882 350.7413744897696Q845.125241480176 347.02024579310944 839.2548401742379 344.999287966475Q833.3844388682998 342.9783301398406 826.6158340838574 342.9783301398406L826.6158340838574 342.9783301398406L824.8194271268491 342.9783301398406Q825.4930797357272 344.999287966475 825.7176306053532 347.82221318463104Q825.9421814749793 350.64513840278704 826.1667323446053 353.91716536019516Q826.3912832142314 357.18919231760333 826.6158340838574 360.68577014463744Q826.8403849534835 364.1823479716717 827.2894866927356 367.55061101606236L827.2894866927356 367.55061101606236Q828.4122410408659 375.2174192790089 829.791624954283 382.33888971572065Q831.1389301720393 389.42828145677163 832.2616845201695 395.97233537158786ZM912.7792106289381 351.09424014203915L912.7792106289381 351.09424014203915Q912.330108889686 351.3187910116652 912.330108889686 351.5433418812912L912.330108889686 351.5433418812912L912.7792106289381 351.5433418812912Q914.3510667163205 351.5433418812912 915.9550014993637 352.31323057715196Q917.526857586746 353.11519796867356 918.6496119348762 354.1417162298212Q919.7723662830065 355.136155795308 920.5743336745281 355.9381231868296Q921.3442223703888 356.7400905783512 921.5687732400149 356.7400905783512L921.5687732400149 356.7400905783512Q924.9691149800665 358.31194666573356 929.0110306333354 358.31194666573356L929.0110306333354 358.31194666573356Q935.5550845481516 358.31194666573356 940.0781806363334 356.3872249260817Q944.6012767245152 354.46250318642984 944.6012767245152 347.02024579310944L944.6012767245152 347.02024579310944Q943.2218928110981 342.52922840058847 941.5538006367331 339.577988399789Q939.8536297667074 336.65882709465035 936.0041862874036 333.9321379634769L936.0041862874036 333.9321379634769L931.2886180252567 331.91118013684246L928.1128271548312 331.91118013684246Q926.3164201978227 331.91118013684246 923.397258892684 332.8093836153467Q920.4460188918847 333.70758709385086 917.526857586746 335.31152187689406L917.526857586746 335.31152187689406Q916.6286541082418 336.65882709465035 915.7304506297376 339.25720144318035Q914.8001684555726 341.82349709604944 914.1265158466945 344.3256353575968Q913.4528632378162 346.7956949234834 913.1320762812077 348.8166527501178Q912.7792106289381 350.8696892724131 912.7792106289381 351.09424014203915ZM914.5756175859465 372.97191058274836L914.5756175859465 372.97191058274836L913.9019649770685 370.469772321201Q916.6286541082418 382.4351258027033 926.9900728067009 390.10193406564974L926.9900728067009 390.10193406564974Q929.2355815029614 391.89834102265814 932.7321593299955 393.2777249360753Q936.2287371570297 394.6250301538316 939.7253149840639 395.7477845019618Q943.2218928110981 396.8705388500921 945.9485819422715 397.44795537198763Q948.6431923777841 397.9932931982223 949.3168449866622 397.9932931982223L949.3168449866622 397.9932931982223Q951.5944323785836 395.97233537158786 954.9626954229743 395.97233537158786L954.9626954229743 395.97233537158786Q959.036689771904 396.42143711084 961.2821984681646 399.244362328996Q963.527707164425 402.06728754715203 963.527707164425 405.21099972191666L963.527707164425 405.21099972191666Q963.527707164425 410.1831975493506 958.9083749892607 413.23067363713267Q954.2890428140962 416.2781497249148 949.0922941170362 416.2781497249148L949.0922941170362 416.2781497249148Q938.0572228096989 416.2781497249148 928.1128271548312 411.88336841937644Q918.2005101956241 407.48858711383804 910.7582528023037 400.0463297205176Q903.3159954089833 392.5719936315363 898.6966632338188 382.88422754195534Q894.0773310586544 373.1964614523744 893.6282293194024 362.3538623190024L893.6282293194024 362.3538623190024Q893.6282293194024 354.91160492568196 894.7509836675326 346.34659318423127Q895.8737380156629 337.7815814427806 899.4665519296796 330.4355601364427Q903.0914445393572 323.12161752576577 909.9562854107821 318.1494196983318Q916.8532049778679 313.1772218708979 928.3373780244572 313.1772218708979L928.3373780244572 313.1772218708979Q935.5550845481516 313.1772218708979 941.8745875933419 316.22469795868Q948.1940906385321 319.27217404646206 952.8134228136964 324.468922743522Q957.4327549888608 329.665671440582 960.1594441200343 336.3059614423808Q962.8540545555468 342.9783301398406 962.8540545555468 350.1960366635349L962.8540545555468 350.1960366635349Q962.8540545555468 356.7400905783512 960.4802310766429 361.68020971012425Q958.106407597739 366.6524075375582 954.0644919444701 369.9244344949663Q949.9904975955403 373.1964614523744 944.4729619418717 374.89663232240025Q938.9554262882032 376.56472449676517 932.8604741126389 376.56472449676517L932.8604741126389 376.56472449676517Q930.3904145467525 376.56472449676517 927.3429384589704 376.11562275751305Q924.2954623711883 375.66652101826094 921.5687732400149 375.12118319202625Q918.8741628045022 374.5437666701307 916.9494410648505 373.96635014823516Q915.0247193251986 373.4210123220005 914.5756175859465 372.97191058274836ZM990.3775754325682 406.33375407004695L990.3775754325682 404.08824537378644Q990.3775754325682 397.9932931982223 990.6983623891767 391.44923928340603Q991.0512280414463 384.9051853685898 992.1739823895765 379.06686275831254L992.1739823895765 379.06686275831254L993.7458384769589 362.3538623190024L995.7988749992542 350.1960366635349Q996.4725276081323 347.24479666273544 996.4725276081323 344.7747370968489L996.4725276081323 344.7747370968489Q996.4725276081323 342.0480479656755 995.4460093469847 339.12888666053686Q994.419491085837 336.20972535539823 990.1530245629422 336.20972535539823L990.1530245629422 336.20972535539823Q988.3566176059337 336.20972535539823 986.6564467359078 335.1832070942506Q984.9562758658822 334.1566888331029 983.6089706481259 332.71314752836406Q982.2616654303696 331.23752752796435 981.459698038848 329.665671440582Q980.6898093429872 328.09381535319966 980.6898093429872 326.7144314397825L980.6898093429872 326.7144314397825Q980.6898093429872 324.01982100426994 983.3844197784998 320.87610882950526Q986.0790302140124 317.7003179590797 990.8266771718202 317.7003179590797L990.8266771718202 317.7003179590797Q1002.5674797836964 318.82307230721 1007.9567006547215 324.244371873896Q1013.3780002214075 329.665671440582 1013.3780002214075 337.5570305731545L1013.3780002214075 337.5570305731545Q1020.1466050058499 332.8093836153467 1029.160718486553 330.4355601364427Q1038.2069106629165 328.09381535319966 1050.58928718801 327.1635331790346L1050.58928718801 327.1635331790346Q1055.5614850154438 327.1635331790346 1058.2560954509563 329.7619075275646Q1060.98278458213 332.3602818760946 1060.98278458213 336.20972535539823L1060.98278458213 336.20972535539823Q1060.98278458213 339.577988399789 1058.7051971902083 342.1763627483189Q1056.4596884939479 344.7747370968489 1052.6423237103054 345.4483897057271L1052.6423237103054 345.4483897057271Q1042.2488263161854 346.1220423146052 1035.0311197924907 347.69389840198755Q1027.8134132687965 349.2657544893699 1022.8412154413625 352.76233231640407Q1017.9010963095895 356.25891014343824 1015.174407178416 362.12931144937636Q1012.4797967429034 367.9997127553145 1011.1324915251472 377.2383771056433L1011.1324915251472 377.2383771056433L1010.4588389162691 380.6387188456949L1010.4588389162691 389.8773831960237Q1010.2342880466429 393.2777249360753 1010.1059732639994 396.77430276310946Q1010.0097371770169 400.27088059014363 1009.5606354377649 403.86369450416043L1009.5606354377649 403.86369450416043L1008.8549041332258 407.93768885309015L1007.5075989154695 411.5305027671069Q1003.9147850014527 415.82904798566267 999.1671380436449 415.82904798566267L999.1671380436449 415.82904798566267Q991.0512280414463 415.82904798566267 990.3775754325682 406.33375407004695L990.3775754325682 406.33375407004695ZM1197.6701067930712 383.5578801508335L1198.3437594019492 379.06686275831254L1196.7719033145672 378.8423118886865Q1193.3715615745155 378.1365805841475 1190.5486363563596 376.56472449676517Q1187.7257111382037 374.9928684093828 1185.0311007026908 373.4210123220005Q1182.3364902671783 371.84915623461814 1179.834352005631 370.5980871038445Q1177.3642924397445 369.34701797307076 1174.8621541781972 369.34701797307076L1174.8621541781972 369.34701797307076Q1166.9707950456245 370.24522145157493 1161.2287085223297 374.76831753975677Q1155.4866219990354 379.2914136279386 1155.4866219990354 385.6109166731288L1155.4866219990354 385.6109166731288Q1155.4866219990354 387.40732363013717 1156.3848254775394 389.42828145677163Q1157.2830289560434 391.44923928340603 1159.3039867826778 394.6250301538316L1159.3039867826778 394.6250301538316Q1165.174388088616 398.2178440678483 1172.1675437426843 398.2178440678483L1172.1675437426843 398.2178440678483Q1180.283453744883 398.2178440678483 1186.3784059204472 396.645987980466L1186.3784059204472 396.645987980466L1189.2975672255857 393.7268266753274Q1191.575154617507 390.7755866745279 1195.39251940115 390.7755866745279L1195.39251940115 390.7755866745279L1196.5152737492804 390.7755866745279Q1196.7719033145672 388.9791797175195 1196.9964541841932 387.1827727605111Q1197.2210050538192 385.35428710784186 1197.6701067930712 383.5578801508335L1197.6701067930712 383.5578801508335ZM1201.7120224463401 406.33375407004695L1201.7120224463401 406.33375407004695L1196.5152737492804 411.30595189748084Q1193.5961124441415 414.0005623329934 1187.1803733119687 415.2516314637671Q1180.732555484135 416.50270059454084 1173.7393998300668 416.50270059454084L1173.7393998300668 416.50270059454084Q1164.276184610112 416.50270059454084 1157.6358946083133 414.4817427679064Q1150.9635259108531 412.4287062456111 1145.9913280834194 406.558304939673L1145.9913280834194 406.558304939673Q1137.8754180812207 395.7477845019618 1137.8754180812207 386.28456928200694L1137.8754180812207 386.28456928200694Q1137.8754180812207 379.9650662368167 1140.473792429751 373.7417992786091Q1143.072166778281 367.55061101606236 1147.8198137360887 362.5784131886285Q1152.5353819982356 357.6382940568554 1159.4323015653213 354.46250318642984Q1166.2971424367465 351.3187910116652 1174.8621541781972 351.3187910116652L1174.8621541781972 351.3187910116652Q1178.4870467878745 351.76789275091727 1181.8553098322654 352.8906470990475Q1185.2556515723168 354.0134014471778 1188.1748128774557 355.36070666493407Q1191.126052878255 356.7400905783512 1193.4998763571589 357.959081013464Q1195.841621140402 359.21015014423773 1197.2210050538192 359.8838027531159L1197.2210050538192 359.8838027531159L1195.841621140402 353.7888505775517Q1194.718866792272 350.1960366635349 1193.1470107048895 346.69945883650075Q1191.575154617507 343.2028810094666 1189.2975672255857 339.80253926941504L1189.2975672255857 339.80253926941504L1184.8065498330648 335.7606236161461Q1183.0101428760563 335.31152187689406 1181.4062080930134 334.50955448537246Q1179.834352005631 333.70758709385086 1177.3642924397445 333.70758709385086L1177.3642924397445 333.70758709385086Q1170.8202385249283 334.1566888331029 1164.500735479738 335.40775796387663Q1158.1812324345478 336.65882709465035 1151.8617293893576 338.9043357909108L1151.8617293893576 338.9043357909108Q1151.1880767804792 339.12888666053686 1149.8407715627231 339.12888666053686L1149.8407715627231 339.12888666053686Q1145.0931246049154 339.12888666053686 1142.4947502563855 336.4342762250243Q1139.928454603516 333.70758709385086 1139.928454603516 330.5638749190862L1139.928454603516 330.5638749190862Q1139.928454603516 327.8692644835736 1141.2757598212725 325.7199918742957Q1142.623065039029 323.57071926501783 1146.4725085183322 321.32521056875737L1146.4725085183322 321.32521056875737Q1152.3108311286096 319.4967249160881 1159.4323015653213 317.3795310024711Q1166.5216933063725 315.2302583931932 1173.7393998300668 315.2302583931932L1173.7393998300668 315.2302583931932Q1186.1538550508212 315.2302583931932 1194.3980798356633 320.1703775249662Q1202.6102259248441 325.1425753524002 1207.454108969635 333.1622492676162Q1212.3300707100861 341.14984448717126 1214.2227137540772 350.8696892724131Q1216.147435493729 360.557455361994 1216.147435493729 370.0206705819489L1216.147435493729 370.0206705819489Q1216.147435493729 375.66652101826094 1215.8266485371205 382.1143388460946Q1215.473782884851 388.5300779782674 1214.2227137540772 394.04761363193603Q1213.0037233189641 399.56514928560466 1210.7261359270428 403.19004189528226Q1208.4806272307824 406.782855809299 1204.66326244714 406.782855809299L1204.66326244714 406.782855809299Q1203.7329802729746 406.782855809299 1202.8347767944706 406.68661972231644Q1201.9365733159661 406.558304939673 1201.7120224463401 406.33375407004695ZM1269.173519421137 453.48943669151697L1269.173519421137 453.48943669151697Q1269.173519421137 458.0125327796988 1266.2222794203376 460.4825923455853Q1263.3031181151987 462.9526519114719 1260.1273272447734 462.9526519114719L1260.1273272447734 462.9526519114719Q1256.983615070009 462.9526519114719 1254.0323750692091 460.803379302194Q1251.1132137640707 458.686185388577 1250.6641120248182 454.16308930039514L1250.6641120248182 454.16308930039514Q1249.7659085463142 443.8016706019361 1248.6431541981842 433.5364879904596Q1247.5203998500538 423.27130537898313 1245.2428124581324 412.8778079848632L1245.2428124581324 412.8778079848632L1244.3446089796284 408.8358923315943Q1244.3446089796284 407.7131379834641 1244.0238220230194 406.558304939673Q1243.67095637075 405.4355505915428 1243.67095637075 404.3127962434125L1243.67095637075 404.3127962434125L1237.5760041951858 370.91887406045305Q1237.3514533255598 369.1224671034447 1236.8061154993252 365.5296531894279Q1236.2286989774298 361.9047605797503 1235.5550463685513 357.41374318722933Q1234.8813937596733 352.8906470990475 1234.3039772377779 347.82221318463104Q1233.7586394115428 342.75377927021447 1233.7586394115428 338.00613231240663L1233.7586394115428 338.00613231240663Q1233.7586394115428 331.91118013684246 1236.0041481078038 329.08825491868646Q1238.2496568040642 326.2653297005304 1241.521683761472 325.27089013504366Q1244.7937107188804 324.244371873896 1248.2902885459143 324.37268665653943Q1251.7868663729487 324.468922743522 1254.2569259388351 324.468922743522L1254.2569259388351 324.468922743522Q1263.5276689848247 324.6934736131481 1272.6700972481713 327.7409497009301Q1281.7804468158565 330.78842578871223 1288.9981533395508 336.65882709465035Q1296.2158598632454 342.52922840058847 1300.6106411687838 351.3187910116652Q1305.037501169983 360.1083536227419 1305.037501169983 371.84915623461814L1305.037501169983 371.84915623461814Q1305.037501169983 388.75462884789346 1294.5477676888804 400.59166754675226Q1284.0580342077778 412.4287062456111 1263.9767707240771 414.70629363753244L1263.9767707240771 414.70629363753244Q1265.7731776810851 423.72040711823524 1267.024246811859 433.40817320781616Q1268.243237246972 443.12801799305794 1269.173519421137 453.48943669151697ZM1260.5764289840254 395.97233537158786L1260.5764289840254 395.97233537158786L1266.8959320292156 395.52323363233575Q1275.4609437706663 395.0741318930837 1281.1067942069785 388.62631406525Q1286.7526446432903 382.2105749330772 1286.7526446432903 371.400054495366L1286.7526446432903 371.400054495366Q1286.7526446432903 364.8560005805498 1284.2825850774038 359.65925188348984Q1281.7804468158565 354.46250318642984 1277.6102163799442 350.7413744897696Q1273.4399859440318 347.02024579310944 1267.5695846380936 344.999287966475Q1261.7312620278167 342.9783301398406 1254.962657243374 342.9783301398406L1254.962657243374 342.9783301398406L1253.1341715907047 342.9783301398406Q1253.8078241995831 344.999287966475 1254.0323750692091 347.82221318463104Q1254.2569259388351 350.64513840278704 1254.513555504122 353.91716536019516Q1254.738106373748 357.18919231760333 1254.962657243374 360.68577014463744Q1255.187208113 364.1823479716717 1255.6363098522525 367.55061101606236L1255.6363098522525 367.55061101606236Q1256.7590642003825 375.2174192790089 1258.106369418139 382.33888971572065Q1259.453674635895 389.42828145677163 1260.5764289840254 395.97233537158786ZM1357.582404662478 453.48943669151697L1357.582404662478 453.48943669151697Q1357.582404662478 458.0125327796988 1354.6311646616787 460.4825923455853Q1351.7120033565402 462.9526519114719 1348.5682911817753 462.9526519114719L1348.5682911817753 462.9526519114719Q1345.39250031135 462.9526519114719 1342.473339006211 460.803379302194Q1339.5220990054117 458.686185388577 1339.0729972661597 454.16308930039514L1339.0729972661597 454.16308930039514Q1338.1747937876553 443.8016706019361 1337.0520394395253 433.5364879904596Q1335.9292850913948 423.27130537898313 1333.6516976994735 412.8778079848632L1333.6516976994735 412.8778079848632L1332.7534942209695 408.8358923315943Q1332.7534942209695 407.7131379834641 1332.4327072643605 406.558304939673Q1332.079841612091 405.4355505915428 1332.079841612091 404.3127962434125L1332.079841612091 404.3127962434125L1325.9848894365273 370.91887406045305Q1325.7603385669013 369.1224671034447 1325.2150007406663 365.5296531894279Q1324.6375842187708 361.9047605797503 1323.9639316098928 357.41374318722933Q1323.2902790010144 352.8906470990475 1322.712862479119 347.82221318463104Q1322.1675246528844 342.75377927021447 1322.1675246528844 338.00613231240663L1322.1675246528844 338.00613231240663Q1322.1675246528844 331.91118013684246 1324.4130333491448 329.08825491868646Q1326.6906207410661 326.2653297005304 1329.9305690028132 325.27089013504366Q1333.2025959602215 324.244371873896 1336.6991737872559 324.37268665653943Q1340.1957516142897 324.468922743522 1342.697889875837 324.468922743522L1342.697889875837 324.468922743522Q1351.9365542261662 324.6934736131481 1361.0789824895123 327.7409497009301Q1370.2214107528584 330.78842578871223 1377.4391172765527 336.65882709465035Q1384.6568238002474 342.52922840058847 1389.0516051057857 351.3187910116652Q1393.446386411324 360.1083536227419 1393.446386411324 371.84915623461814L1393.446386411324 371.84915623461814Q1393.446386411324 388.75462884789346 1382.9566529302215 400.59166754675226Q1372.466919449119 412.4287062456111 1352.3856559654182 414.70629363753244L1352.3856559654182 414.70629363753244Q1354.1820629224267 423.72040711823524 1355.4331320532 433.40817320781616Q1356.684201183974 443.12801799305794 1357.582404662478 453.48943669151697ZM1349.0173929210273 395.97233537158786L1349.0173929210273 395.97233537158786L1355.3048172705567 395.52323363233575Q1363.9019077076682 395.0741318930837 1369.5156794483196 388.62631406525Q1375.1615298846318 382.2105749330772 1375.1615298846318 371.400054495366L1375.1615298846318 371.400054495366Q1375.1615298846318 364.8560005805498 1372.691470318745 359.65925188348984Q1370.2214107528584 354.46250318642984 1366.0191016212852 350.7413744897696Q1361.848871185373 347.02024579310944 1356.010548575096 344.999287966475Q1350.1401472691578 342.9783301398406 1343.3715424847155 342.9783301398406L1343.3715424847155 342.9783301398406L1341.575135527707 342.9783301398406Q1342.248788136585 344.999287966475 1342.473339006211 347.82221318463104Q1342.697889875837 350.64513840278704 1342.922440745463 353.91716536019516Q1343.146991615089 357.18919231760333 1343.3715424847155 360.68577014463744Q1343.5960933543415 364.1823479716717 1344.0451950935935 367.55061101606236L1344.0451950935935 367.55061101606236Q1345.1679494417235 375.2174192790089 1346.51525465948 382.33888971572065Q1347.8625598772364 389.42828145677163 1349.0173929210273 395.97233537158786Z " fill="#ffe67c" transform="matrix(0.6279394677149791,0,0,0.6279394677149792,0,56.389205879683345)"/></g></svg>